<svg width="24" height="24" viewBox="0 0 24 24" fill="none" xmlns="http://www.w3.org/2000/svg">
<path d="M21.1965 4.4025C21.1965 3.2985 20.301 2.40375 19.197 2.40375C18.093 2.40375 17.1975 3.2985 17.1975 4.4025C17.1975 5.36925 17.8845 6.17625 18.7973 6.3615V19.9965H19.5968V6.3615C20.5095 6.17625 21.1965 5.36925 21.1965 4.4025ZM19.197 5.6025C18.5355 5.6025 17.9978 5.06475 17.9978 4.40325C17.9978 3.74175 18.5355 3.204 19.197 3.204C19.8585 3.204 20.3963 3.74175 20.3963 4.40325C20.3963 5.06475 19.8585 5.6025 19.197 5.6025Z" fill="black"/>
<path d="M5.2027 17.6377V4.00275H4.4032V17.6377C3.49045 17.823 2.8042 18.6292 2.8042 19.5967C2.8042 20.7007 3.6997 21.5962 4.8037 21.5962C5.9077 21.5962 6.8032 20.7007 6.8032 19.5967C6.8032 18.6292 6.11545 17.823 5.2027 17.6377ZM4.80295 20.7967C4.14145 20.7967 3.6037 20.259 3.6037 19.5975C3.6037 18.936 4.14145 18.3982 4.80295 18.3982C5.46445 18.3982 6.0022 18.936 6.0022 19.5975C6.0022 20.259 5.46445 20.7967 4.80295 20.7967Z" fill="black"/>
<path d="M12.3997 10.041V4.00348H11.6002V10.041C10.6875 10.2262 10.0005 11.0332 10.0005 12C10.0005 12.9667 10.6875 13.7737 11.6002 13.959V19.9965H12.3997V13.959C13.3125 13.7737 13.9995 12.9667 13.9995 12C13.9995 11.0332 13.3125 10.2262 12.3997 10.041ZM12 13.1992C11.3385 13.1992 10.8007 12.6615 10.8007 12C10.8007 11.3385 11.3385 10.8007 12 10.8007C12.6615 10.8007 13.1992 11.3385 13.1992 12C13.1992 12.6615 12.6615 13.1992 12 13.1992Z" fill="black"/>
</svg>
