<svg width="28" height="28" viewBox="0 0 28 28" fill="none" xmlns="http://www.w3.org/2000/svg">
<path d="M18.1739 3.94561L20.5072 5.17009C23.0176 6.48742 24.2727 7.14608 24.9696 8.32968C25.6666 9.51327 25.6666 10.9861 25.6666 13.9317V14.0682C25.6666 17.0138 25.6666 18.4867 24.9696 19.6703C24.2727 20.8539 23.0176 21.5125 20.5072 22.8299L18.1739 24.0543C16.1257 25.1292 15.1016 25.6666 13.9999 25.6666C12.8982 25.6666 11.8741 25.1292 9.82592 24.0543L7.49259 22.8299C4.98232 21.5125 3.72717 20.8539 3.03022 19.6703C2.33325 18.4867 2.33325 17.0138 2.33325 14.0682V13.9317C2.33325 10.9861 2.33325 9.51327 3.03022 8.32968C3.72717 7.14608 4.98232 6.48742 7.49259 5.17009L9.82592 3.94561C11.8741 2.87075 12.8982 2.33331 13.9999 2.33331C15.1016 2.33331 16.1257 2.87075 18.1739 3.94561Z" stroke="black" stroke-width="2" stroke-linecap="round"/>
<path d="M24.5 8.75L14 14M14 14L3.5 8.75M14 14V25.0833" stroke="black" stroke-width="2" stroke-linecap="round"/>
</svg>
